<svg xmlns="http://www.w3.org/2000/svg" viewBox="0 0 24 24" role="img" aria-hidden="true">
  <path
    fill="currentColor"
    d="M12 .3a12 12 0 0 0-3.8 23.38c.6.11.82-.26.82-.58v-2.23c-3.34.73-4.03-1.42-4.03-1.42-.55-1.38-1.34-1.75-1.34-1.75-1.08-.75.09-.73.09-.73 1.2.08 1.83 1.24 1.83 1.24 1.07 1.83 2.81 1.3 3.5 1 .1-.78.42-1.31.76-1.61-2.66-.3-5.47-1.33-5.47-5.93 0-1.31.47-2.38 1.24-3.22-.12-.3-.54-1.52.12-3.18 0 0 1-.32 3.3 1.23a11.5 11.5 0 0 1 6.01 0c2.29-1.55 3.3-1.23 3.3-1.23.65 1.66.24 2.88.12 3.18.77.84 1.23 1.91 1.23 3.22 0 4.61-2.8 5.62-5.47 5.92.43.37.82 1.1.82 2.22v3.29c0 .32.22.69.82.58A12 12 0 0 0 12 .3Z"
  />
</svg>
