<svg xmlns="http://www.w3.org/2000/svg" viewBox="0 0 24 24" role="img" aria-hidden="true">
  <path
    fill="currentColor"
    d="M20.45 20.45h-3.56v-5.57c0-1.33-.03-3.03-1.85-3.03-1.86 0-2.14 1.45-2.14 2.94v5.66H9.35V9h3.41v1.56h.05c.47-.9 1.64-1.85 3.37-1.85 3.6 0 4.26 2.37 4.26 5.45v6.29ZM5.34 7.43c-1.14 0-2.06-.92-2.06-2.06 0-1.14.92-2.06 2.06-2.06 1.14 0 2.06.92 2.06 2.06 0 1.14-.92 2.06-2.06 2.06ZM7.12 20.45H3.56V9h3.56v11.45ZM22.23 0H1.77C.79 0 0 .77 0 1.73v20.54C0 23.23.79 24 1.77 24h20.45c.98 0 1.78-.77 1.78-1.73V1.73C24 .77 23.2 0 22.23 0Z"
  />
</svg>
